<?xml version="1.0" encoding="UTF-8"?>
<svg width="30px" height="30px" viewBox="0 0 30 30" version="1.1" xmlns="http://www.w3.org/2000/svg" xmlns:xlink="http://www.w3.org/1999/xlink">
    <!-- Generator: Sketch 51.3 (57544) - http://www.bohemiancoding.com/sketch -->
    <title>btn-menu-white@2x</title>
    <desc>Created with Sketch.</desc>
    <defs></defs>
    <g id="btn-menu-white" stroke="none" stroke-width="1" fill="none" fill-rule="evenodd">
        <path d="M2.5,5 L27.5,5 C28.3284271,5 29,5.67157288 29,6.5 L29,6.5 C29,7.32842712 28.3284271,8 27.5,8 L2.5,8 C1.67157288,8 1,7.32842712 1,6.5 L1,6.5 C1,5.67157288 1.67157288,5 2.5,5 Z M2.5,13 L27.5,13 C28.3284271,13 29,13.6715729 29,14.5 L29,14.5 C29,15.3284271 28.3284271,16 27.5,16 L2.5,16 C1.67157288,16 1,15.3284271 1,14.5 L1,14.5 C1,13.6715729 1.67157288,13 2.5,13 Z M2.5,21 L27.5,21 C28.3284271,21 29,21.6715729 29,22.5 L29,22.5 C29,23.3284271 28.3284271,24 27.5,24 L2.5,24 C1.67157288,24 1,23.3284271 1,22.5 L1,22.5 C1,21.6715729 1.67157288,21 2.5,21 Z" id="Combined-Shape" fill="#333333" fill-rule="nonzero"></path>
    </g>
</svg>