<?xml version="1.0" encoding="UTF-8"?>
<svg width="30px" height="30px" viewBox="0 0 30 30" version="1.1" xmlns="http://www.w3.org/2000/svg" xmlns:xlink="http://www.w3.org/1999/xlink">
    <!-- Generator: Sketch 51.3 (57544) - http://www.bohemiancoding.com/sketch -->
    <title>btn-menu-close@2x</title>
    <desc>Created with Sketch.</desc>
    <defs></defs>
    <g id="btn-menu-close" stroke="none" stroke-width="1" fill="none" fill-rule="evenodd">
        <g id="Group" transform="translate(1.000000, 4.000000)" fill="#7356A7" fill-rule="nonzero">
            <path d="M-0.5,9 L28.5,9 C29.3284271,9 30,9.67157288 30,10.5 L30,10.5 C30,11.3284271 29.3284271,12 28.5,12 L-0.5,12 C-1.32842712,12 -2,11.3284271 -2,10.5 L-2,10.5 C-2,9.67157288 -1.32842712,9 -0.5,9 Z" id="Combined-Shape-path" transform="translate(14.000000, 10.500000) rotate(35.000000) translate(-14.000000, -10.500000) "></path>
            <path d="M-0.5,9 L28.5,9 C29.3284271,9 30,9.67157288 30,10.5 L30,10.5 C30,11.3284271 29.3284271,12 28.5,12 L-0.5,12 C-1.32842712,12 -2,11.3284271 -2,10.5 L-2,10.5 C-2,9.67157288 -1.32842712,9 -0.5,9 Z" id="Combined-Shape-path" transform="translate(14.000000, 10.500000) rotate(145.000000) translate(-14.000000, -10.500000) "></path>
        </g>
    </g>
</svg>