<?xml version="1.0" encoding="UTF-8"?>
<svg width="26px" height="26px" viewBox="0 0 26 26" version="1.1" xmlns="http://www.w3.org/2000/svg" xmlns:xlink="http://www.w3.org/1999/xlink">
    <!-- Generator: Sketch 51.3 (57544) - http://www.bohemiancoding.com/sketch -->
    <title>icon-phone@2x</title>
    <desc>Created with Sketch.</desc>
    <defs></defs>
    <g id="icon-phone" stroke="none" stroke-width="1" fill="none" fill-rule="evenodd">
        <path d="M18.3207171,17.3143426 C17.347012,17.101992 16.1816733,17.4749004 15.7621514,18.3812749 C15.5187251,18.9043825 15.4824701,19.6191235 14.9541833,19.8521912 C14.5760956,20.0231076 14.1410359,19.8314741 13.7784861,19.6294821 C11.9968127,18.6350598 8.42310757,11.5290837 8.69243028,9.50398406 C8.74422311,9.09482072 8.85816733,8.62868526 9.21553785,8.42669323 C9.71792829,8.14183267 10.3135458,8.54063745 10.8780876,8.65458167 C11.8569721,8.86175299 12.8462151,8.14701195 13.2605578,7.24063745 C13.6749004,6.33426295 13.6282869,5.28286853 13.4884462,4.2936255 C13.3227092,3.13864542 13.0119522,1.95258964 12.2454183,1.07729084 C10.059761,-1.40876494 6.83306773,1.09800797 5.54342629,3.19561753 C4.71474104,4.54741036 4.25896414,6.09601594 4.04143426,7.65498008 C3.57011952,10.9800797 9.54183267,22.8613546 12.4940239,24.4721116 C13.8768924,25.2282869 15.389243,25.7824701 16.9585657,25.9223108 C19.4135458,26.1398406 23.3498008,25.047012 22.6609562,21.8099602 C22.4175299,20.6705179 21.650996,19.7123506 20.8223108,18.8940239 C20.1075697,18.1896414 19.2944223,17.5266932 18.3207171,17.3143426 Z" id="XMLID_1_" fill="#7356A7" fill-rule="nonzero"></path>
    </g>
</svg>