<?xml version="1.0" encoding="UTF-8"?>
<svg width="26px" height="26px" viewBox="0 0 26 26" version="1.1" xmlns="http://www.w3.org/2000/svg" xmlns:xlink="http://www.w3.org/1999/xlink">
    <!-- Generator: Sketch 51.3 (57544) - http://www.bohemiancoding.com/sketch -->
    <title>icon-location@2x</title>
    <desc>Created with Sketch.</desc>
    <defs>
        <polygon id="path-1" points="3.0005 0 23 0 23 25.9998 3.0005 25.9998"></polygon>
    </defs>
    <g id="icon-location" stroke="none" stroke-width="1" fill="none" fill-rule="evenodd">
        <mask id="mask-2" fill="white">
            <use xlink:href="#path-1"></use>
        </mask>
        <g id="Clip-2"></g>
        <path d="M8.5255,10.1028 C8.5125,7.6408 10.4725,5.6448 12.9335,5.6018 C12.9565,5.6018 12.9775,5.6008 13.0005,5.6008 C13.0225,5.6008 13.0445,5.6018 13.0665,5.6018 C15.5275,5.6448 17.4875,7.6408 17.4745,10.1028 C17.4635,12.5618 15.4785,14.5258 13.0005,14.5508 C10.5215,14.5258 8.5375,12.5618 8.5255,10.1028 M23.0005,9.8418 C22.9995,9.8278 22.9985,9.8128 22.9965,9.7978 C22.8935,5.8078 20.4375,2.1818 16.6485,0.6948 C15.4725,0.2338 14.2725,0.0118 13.0965,0.0008 C13.0645,0.0008 13.0325,-0.0002 13.0005,-0.0002 C12.9675,-0.0002 12.9355,0.0008 12.9035,0.0008 C11.7265,0.0118 10.5275,0.2338 9.3515,0.6948 C5.5625,2.1818 3.1065,5.8078 3.0045,9.7978 C3.0025,9.8128 3.0015,9.8278 3.0005,9.8418 C3.0005,9.8648 3.0015,9.8878 3.0025,9.9108 C2.9945,10.4388 3.0265,10.9728 3.1035,11.5088 C3.3795,13.4298 4.0965,15.1928 5.0095,16.8818 C6.5465,19.7258 8.5175,22.2378 10.7085,24.5768 C10.9405,24.8278 11.1745,25.0768 11.4145,25.3198 C11.4285,25.3338 11.4435,25.3488 11.4585,25.3628 C11.8865,25.7878 12.4345,25.9988 12.9855,25.9998 C12.9905,25.9998 12.9955,25.9998 13.0005,25.9998 C13.0045,25.9998 13.0095,25.9998 13.0145,25.9998 C13.5655,25.9988 14.1135,25.7878 14.5415,25.3628 C14.5565,25.3488 14.5715,25.3338 14.5865,25.3198 C14.8255,25.0768 15.0595,24.8278 15.2925,24.5768 C17.4825,22.2378 19.4535,19.7258 20.9905,16.8818 C21.9035,15.1928 22.6205,13.4298 22.8965,11.5088 C22.9725,10.9728 23.0055,10.4388 22.9985,9.9108 C22.9995,9.8878 23.0005,9.8648 23.0005,9.8418" id="Fill-1" fill="#7356A7" mask="url(#mask-2)"></path>
    </g>
</svg>