<?xml version="1.0" encoding="UTF-8"?>
<svg width="25px" height="16px" viewBox="0 0 25 16" version="1.1" xmlns="http://www.w3.org/2000/svg" xmlns:xlink="http://www.w3.org/1999/xlink">
    <!-- Generator: Sketch 51.3 (57544) - http://www.bohemiancoding.com/sketch -->
    <title>Fill 1@2x</title>
    <desc>Created with Sketch.</desc>
    <defs></defs>
    <g id="icon" stroke="none" stroke-width="1" fill="none" fill-rule="evenodd">
        <g id="Artboard" transform="translate(-1.000000, -6.000000)" fill="#FFFFFF">
            <path d="M13.5163462,22 C12.6788462,22 11.8923077,21.6667281 11.3009615,21.0621198 L1.91826923,11.4680184 C1.32596154,10.8634101 1,10.059232 1,9.20294931 C1,8.34666667 1.32596154,7.54347158 1.91826923,6.93886329 C2.51057692,6.33228879 3.29711538,6 4.13365385,6 C4.97019231,6 5.75865385,6.33228879 6.35096154,6.93886329 L13.5163462,14.2649462 L20.6509615,6.97130568 C21.2432692,6.36571429 22.0298077,6.0324424 22.8673077,6.0324424 C23.7038462,6.0324424 24.4903846,6.36571429 25.0826923,6.97130568 C25.675,7.57591398 26,8.38009217 26,9.23637481 C26,10.0926575 25.675,10.8958525 25.0826923,11.5004608 L15.7326923,21.0611367 C15.1394231,21.6667281 14.3528846,22 13.5153846,22 L13.5163462,22 Z" id="Fill-1"></path>
        </g>
    </g>
</svg>