<?xml version="1.0" encoding="UTF-8"?>
<svg width="16px" height="25px" viewBox="0 0 16 25" version="1.1" xmlns="http://www.w3.org/2000/svg" xmlns:xlink="http://www.w3.org/1999/xlink">
    <!-- Generator: Sketch 51.3 (57544) - http://www.bohemiancoding.com/sketch -->
    <title>Fill 1@2x</title>
    <desc>Created with Sketch.</desc>
    <defs></defs>
    <g id="icon" stroke="none" stroke-width="1" fill="none" fill-rule="evenodd">
        <g id="Artboard" transform="translate(-5.000000, -1.000000)" fill="#7356A7">
            <path d="M13.0163462,21.5 C12.1788462,21.5 11.3923077,21.1667281 10.8009615,20.5621198 L1.41826923,10.9680184 C0.825961538,10.3634101 0.5,9.55923195 0.5,8.70294931 C0.5,7.84666667 0.825961538,7.04347158 1.41826923,6.43886329 C2.01057692,5.83228879 2.79711538,5.5 3.63365385,5.5 C4.47019231,5.5 5.25865385,5.83228879 5.85096154,6.43886329 L13.0163462,13.7649462 L20.1509615,6.47130568 C20.7432692,5.86571429 21.5298077,5.5324424 22.3673077,5.5324424 C23.2038462,5.5324424 23.9903846,5.86571429 24.5826923,6.47130568 C25.175,7.07591398 25.5,7.88009217 25.5,8.73637481 C25.5,9.59265745 25.175,10.3958525 24.5826923,11.0004608 L15.2326923,20.5611367 C14.6394231,21.1667281 13.8528846,21.5 13.0153846,21.5 L13.0163462,21.5 Z" id="Fill-1" transform="translate(13.000000, 13.500000) scale(-1, 1) rotate(90.000000) translate(-13.000000, -13.500000) "></path>
        </g>
    </g>
</svg>